<?xml version="1.0" encoding="UTF-8" standalone="no"?>
<!DOCTYPE svg PUBLIC "-//W3C//DTD SVG 1.1//EN"
 "http://www.w3.org/Graphics/SVG/1.1/DTD/svg11.dtd">
<!-- Generated by graphviz version 2.47.2 (20210527.0053)
 -->
<!-- Title: 0001&#45;00001 Pages: 1 -->
<svg width="260pt" height="108pt"
 viewBox="0.00 0.00 260.00 107.78" xmlns="http://www.w3.org/2000/svg" xmlns:xlink="http://www.w3.org/1999/xlink">
<g id="graph0" class="graph" transform="scale(1 1) rotate(0) translate(4 103.78)">
<title>0001&#45;00001</title>
<polygon fill="white" stroke="transparent" points="-4,4 -4,-103.78 256,-103.78 256,4 -4,4"/>
<!-- 0 -->
<g id="node1" class="node">
<title>0</title>
<polygon fill="none" stroke="blue" points="36,-64.78 0,-64.78 0,-28.78 36,-28.78 36,-64.78"/>
<text text-anchor="middle" x="18" y="-43.08" font-family="Times New Roman,serif" font-size="14.00">0</text>
</g>
<!-- 1 -->
<g id="node2" class="node">
<title>1</title>
<polygon fill="none" stroke="red" points="225,-99.78 198,-81.78 225,-63.78 252,-81.78 225,-99.78"/>
<text text-anchor="middle" x="225" y="-78.08" font-family="Times New Roman,serif" font-size="14.00">1</text>
</g>
<!-- 0&#45;&gt;1 -->
<g id="edge1" class="edge">
<title>0&#45;&gt;1</title>
<path fill="none" stroke="red" d="M36.35,-57.44C41.85,-60.47 48.04,-63.56 54,-65.78 107.04,-85.63 123.4,-86.71 180,-84.78 183.47,-84.67 187.1,-84.5 190.71,-84.3"/>
<polygon fill="red" stroke="red" points="190.96,-87.79 200.72,-83.67 190.52,-80.8 190.96,-87.79"/>
<text text-anchor="middle" x="117" y="-88.58" font-family="Times New Roman,serif" font-size="14.00">1.0</text>
</g>
<!-- 2 -->
<g id="node3" class="node">
<title>2</title>
<polygon fill="none" stroke="red" points="225,-37.78 198,-19.78 225,-1.78 252,-19.78 225,-37.78"/>
<text text-anchor="middle" x="225" y="-16.08" font-family="Times New Roman,serif" font-size="14.00">2</text>
</g>
<!-- 0&#45;&gt;2 -->
<g id="edge2" class="edge">
<title>0&#45;&gt;2</title>
<path fill="none" stroke="blue" d="M36.17,-33.03C49.85,-23.01 69.97,-10.27 90,-4.78 126.24,5.13 169.71,-3.28 197.1,-10.94"/>
<polygon fill="blue" stroke="blue" points="196.18,-14.32 206.76,-13.8 198.16,-7.6 196.18,-14.32"/>
<text text-anchor="middle" x="117" y="-8.58" font-family="Times New Roman,serif" font-size="14.00">1.0</text>
</g>
<!-- 3 -->
<g id="node4" class="node">
<title>3</title>
<ellipse fill="none" stroke="gray" cx="117" cy="-46.78" rx="27" ry="18"/>
<text text-anchor="middle" x="117" y="-43.08" font-family="Times New Roman,serif" font-size="14.00">3</text>
</g>
<!-- 0&#45;&gt;3 -->
<g id="edge3" class="edge">
<title>0&#45;&gt;3</title>
<path fill="none" stroke="blue" d="M36.34,-46.78C48.27,-46.78 64.56,-46.78 79.3,-46.78"/>
<polygon fill="blue" stroke="blue" points="79.67,-50.28 89.67,-46.78 79.67,-43.28 79.67,-50.28"/>
<text text-anchor="middle" x="63" y="-50.58" font-family="Times New Roman,serif" font-size="14.00">1.0</text>
</g>
<!-- 3&#45;&gt;1 -->
<g id="edge4" class="edge">
<title>3&#45;&gt;1</title>
<path fill="none" stroke="blue" d="M141.52,-54.55C157.79,-59.92 179.48,-67.09 196.54,-72.72"/>
<polygon fill="blue" stroke="blue" points="195.88,-76.18 206.47,-76 198.07,-69.54 195.88,-76.18"/>
<text text-anchor="middle" x="171" y="-69.58" font-family="Times New Roman,serif" font-size="14.00">0.5</text>
</g>
<!-- 3&#45;&gt;2 -->
<g id="edge5" class="edge">
<title>3&#45;&gt;2</title>
<path fill="none" stroke="blue" d="M141.62,-38.78C148.18,-36.7 155.33,-34.54 162,-32.78 172.18,-30.1 183.42,-27.61 193.5,-25.54"/>
<polygon fill="blue" stroke="blue" points="194.37,-28.93 203.49,-23.54 193,-22.07 194.37,-28.93"/>
<text text-anchor="middle" x="171" y="-36.58" font-family="Times New Roman,serif" font-size="14.00">0.5</text>
</g>
</g>
</svg>
